<svg width="18" height="16" viewBox="0 0 18 16" fill="none" xmlns="http://www.w3.org/2000/svg">
<path d="M17.8125 8.00001C17.8125 8.14919 17.7533 8.29227 17.6478 8.39775C17.5423 8.50324 17.3992 8.56251 17.25 8.56251H2.10846L7.89752 14.3525C7.95279 14.404 7.99712 14.4661 8.02786 14.5351C8.0586 14.6041 8.07513 14.6786 8.07647 14.7541C8.0778 14.8296 8.06391 14.9047 8.03562 14.9747C8.00732 15.0447 7.96522 15.1084 7.9118 15.1618C7.85839 15.2152 7.79476 15.2573 7.72472 15.2856C7.65468 15.3139 7.57966 15.3278 7.50413 15.3265C7.4286 15.3251 7.35412 15.3086 7.28512 15.2778C7.21612 15.2471 7.15402 15.2028 7.10252 15.1475L0.352524 8.39751C0.247186 8.29204 0.188019 8.14907 0.188019 8.00001C0.188019 7.85094 0.247186 7.70798 0.352524 7.60251L7.10252 0.852507C7.20915 0.753147 7.35019 0.699055 7.49591 0.701626C7.64164 0.704197 7.78068 0.763231 7.88374 0.86629C7.9868 0.96935 8.04583 1.10839 8.0484 1.25411C8.05098 1.39984 7.99688 1.54088 7.89752 1.64751L2.10846 7.43751H17.25C17.3992 7.43751 17.5423 7.49677 17.6478 7.60226C17.7533 7.70775 17.8125 7.85082 17.8125 8.00001Z" fill="#13D8CC"/>
</svg>
