<svg id="Layer_1" data-name="Layer 1" xmlns="http://www.w3.org/2000/svg" viewBox="0 0 1500 1000"><defs><style>.cls-1{fill:#ec1e24;}.cls-2{fill:#2b2f84;}.cls-3{fill:#fff;}</style></defs><polygon class="cls-1" points="0 0 0 333.33 0 666.67 0 1000 1500 1000 1500 666.67 1500 333.33 1500 0 0 0"/><rect class="cls-2" width="710.98" height="475.28"/><path class="cls-3" d="M402.89,237.64l-47.4,178.23-47.4-178.23,47.4-178.23m0,225.76,177.74-47.53L355.49,190.11,177.74,237.64"/><path class="cls-3" d="M396.54,261.41,266.62,392l47.82-178.11L444.36,83.29M331.79,278.8l177.63,48L379.19,196.48,201.56,148.53"/><path class="cls-3" d="M379.19,278.8l-177.63,48L331.79,196.48l177.63-47.95m-195,112.88L444.36,392,396.54,213.88,266.62,83.29"/><ellipse class="cls-2" cx="355.49" cy="237.64" rx="100.72" ry="101"/><ellipse class="cls-3" cx="355.49" cy="237.64" rx="88.87" ry="89.12"/></svg>